<?xml version="1.0" encoding="UTF-8" standalone="no"?>
<svg
   xmlns:dc="http://purl.org/dc/elements/1.1/"
   xmlns:cc="http://creativecommons.org/ns#"
   xmlns:rdf="http://www.w3.org/1999/02/22-rdf-syntax-ns#"
   xmlns:svg="http://www.w3.org/2000/svg"
   xmlns="http://www.w3.org/2000/svg"
   xmlns:sodipodi="http://sodipodi.sourceforge.net/DTD/sodipodi-0.dtd"
   xmlns:inkscape="http://www.inkscape.org/namespaces/inkscape"
   id="Capa_1"
   enable-background="new 0 0 479.058 479.058"
   height="512"
   viewBox="0 0 479.058 479.058"
   width="512"
   version="1.1"
   sodipodi:docname="email.svg"
   inkscape:version="0.92.5 (2060ec1f9f, 2020-04-08)">
  <metadata
     id="metadata9">
    <rdf:RDF>
      <cc:Work
         rdf:about="">
        <dc:format>image/svg+xml</dc:format>
        <dc:type
           rdf:resource="http://purl.org/dc/dcmitype/StillImage" />
      </cc:Work>
    </rdf:RDF>
  </metadata>
  <defs
     id="defs7" />
  <sodipodi:namedview
     pagecolor="#ffffff"
     bordercolor="#666666"
     borderopacity="1"
     objecttolerance="10"
     gridtolerance="10"
     guidetolerance="10"
     inkscape:pageopacity="0"
     inkscape:pageshadow="2"
     inkscape:window-width="1920"
     inkscape:window-height="1043"
     id="namedview5"
     showgrid="false"
     showguides="true"
     inkscape:guide-bbox="true"
     inkscape:zoom="0.65186406"
     inkscape:cx="-76.067378"
     inkscape:cy="319.82285"
     inkscape:window-x="0"
     inkscape:window-y="0"
     inkscape:window-maximized="1"
     inkscape:current-layer="Capa_1">
    <sodipodi:guide
       position="29.941,356.443"
       orientation="1,0"
       id="guide11"
       inkscape:locked="false" />
    <sodipodi:guide
       position="449.117,356.443"
       orientation="1,0"
       id="guide13"
       inkscape:locked="false" />
  </sodipodi:namedview>
  <rect
     style="opacity:1;fill:#ffffff;fill-opacity:1;stroke:none;stroke-width:5.42830229;stroke-miterlimit:4;stroke-dasharray:none;stroke-opacity:1"
     id="rect9"
     width="433.68057"
     height="327.26227"
     x="29.941"
     y="78.592323"
     ry="0.47403818" />
  <path
     d="m 479.12112,59.882 -479.08591388,0 C 0.00741348,70.710641 0,80.028 0,104.794 0,161.91796 0.41581364,419.176 0.41581364,419.176 l 478.94405636,0 c 0,0 0.0153,-296.20044 0.0153,-313.87452 0,-24.766003 -0.15831,-37.166155 -0.25405,-45.41948 z m -42.62804,29.941 c 2.034,0 3.969,0.422 5.738,1.159 L 239.529,264.631 39.173,90.982 c 1.769,-0.736 3.704,-1.159 5.738,-1.159 z m 12.62392,299.411 -419.176,0 V 122.615 l 199.778,173.141 c 2.822,2.441 6.316,3.655 9.81,3.655 3.494,0 6.988,-1.213 9.81,-3.655 L 449.117,122.615 c 0,44.63922 0,266.619 0,266.619 z"
     id="path2"
     inkscape:connector-curvature="0"
     sodipodi:nodetypes="cccccccscccssccccsccc" />
</svg>
